<?xml version="1.0" encoding="UTF-8"?>
<svg xmlns="http://www.w3.org/2000/svg" xmlns:xlink="http://www.w3.org/1999/xlink" width="229px" height="84px" viewBox="0 0 229 84" version="1.1">
<defs>
<linearGradient id="linear0" gradientUnits="userSpaceOnUse" x1="24.323" y1="-6.123" x2="128.842" y2="252.308" gradientTransform="matrix(0.411131,0,0,0.411765,0,0)">
<stop offset="0" style="stop-color:rgb(0%,63.921569%,100%);stop-opacity:1;"/>
<stop offset="1" style="stop-color:rgb(18.431373%,5.098039%,100%);stop-opacity:1;"/>
</linearGradient>
</defs>
<g id="surface1">
<path style=" stroke:none;fill-rule:nonzero;fill:rgb(14.117647%,14.117647%,14.117647%);fill-opacity:1;" d="M 132.066406 17.480469 L 132.066406 55.234375 L 121.878906 55.234375 L 121.878906 50.882812 C 119.238281 54.160156 115.410156 55.792969 110.394531 55.792969 C 106.929688 55.792969 103.785156 54.996094 100.960938 53.40625 C 98.175781 51.816406 95.988281 49.546875 94.398438 46.601562 C 92.804688 43.65625 92.003906 40.242188 92.003906 36.355469 C 92.003906 32.472656 92.800781 29.054688 94.398438 26.109375 C 95.988281 23.160156 98.183594 20.894531 100.960938 19.304688 C 103.785156 17.714844 106.929688 16.914062 110.394531 16.914062 C 115.085938 16.914062 118.757812 18.433594 121.402344 21.480469 L 121.402344 17.480469 Z M 112.242188 46.8125 C 114.933594 46.8125 117.167969 45.878906 118.941406 44.007812 C 120.722656 42.089844 121.609375 39.539062 121.609375 36.359375 C 121.609375 33.179688 120.722656 30.652344 118.941406 28.78125 C 117.164062 26.863281 114.929688 25.90625 112.242188 25.90625 C 109.511719 25.90625 107.253906 26.863281 105.476562 28.78125 C 103.695312 30.65625 102.808594 33.179688 102.808594 36.359375 C 102.808594 39.539062 103.695312 42.089844 105.476562 44.007812 C 107.253906 45.878906 109.507812 46.8125 112.242188 46.8125 Z M 141.941406 17.480469 L 152.605469 17.480469 L 152.605469 55.234375 L 141.941406 55.234375 Z M 147.273438 12.214844 C 145.3125 12.214844 143.71875 11.628906 142.488281 10.460938 C 141.257812 9.289062 140.644531 7.839844 140.644531 6.109375 C 140.644531 4.375 141.257812 2.925781 142.488281 1.757812 C 143.71875 0.585938 145.316406 0 147.273438 0 C 149.226562 0 150.824219 0.558594 152.054688 1.6875 C 153.285156 2.804688 153.898438 4.210938 153.898438 5.894531 C 153.898438 7.71875 153.285156 9.242188 152.054688 10.460938 C 150.832031 11.628906 149.234375 12.214844 147.273438 12.214844 Z M 184.65625 53.402344 C 183.609375 54.199219 182.308594 54.804688 180.757812 55.222656 C 179.257812 55.597656 177.683594 55.785156 176.042969 55.785156 C 171.621094 55.785156 168.226562 54.640625 165.855469 52.347656 C 163.488281 50.054688 162.300781 46.6875 162.300781 42.242188 L 162.300781 9.121094 L 172.96875 9.121094 L 172.96875 18.3125 L 182.058594 18.3125 L 182.058594 26.734375 L 172.96875 26.734375 L 172.96875 42.101562 C 172.96875 43.691406 173.355469 44.929688 174.125 45.820312 C 174.902344 46.664062 176.015625 47.082031 177.480469 47.082031 C 179.121094 47.082031 180.578125 46.613281 181.855469 45.679688 Z M 227.734375 17.476562 L 227.734375 55.230469 L 217.617188 55.230469 L 217.617188 50.738281 C 216.207031 52.371094 214.519531 53.640625 212.558594 54.527344 C 210.597656 55.371094 208.480469 55.789062 206.195312 55.789062 C 201.367188 55.789062 197.539062 54.359375 194.710938 51.507812 C 191.882812 48.65625 190.472656 44.421875 190.472656 38.808594 L 190.472656 17.476562 L 201.136719 17.476562 L 201.136719 37.191406 C 201.136719 43.273438 203.621094 46.3125 208.585938 46.3125 C 211.136719 46.3125 213.1875 45.472656 214.742188 43.789062 C 216.292969 42.058594 217.0625 39.507812 217.0625 36.144531 L 217.0625 17.476562 Z M 227.734375 17.476562 "/>
<path style=" stroke:none;fill-rule:evenodd;fill:url(#linear0);" d="M 36.15625 11.453125 C 16.1875 11.453125 0 27.671875 0 47.683594 L 0 83.910156 L 13.558594 83.910156 L 13.558594 47.683594 C 13.558594 35.179688 23.671875 25.039062 36.15625 25.039062 C 48.636719 25.039062 58.757812 35.171875 58.757812 47.683594 C 58.757812 60.1875 48.640625 70.328125 36.15625 70.328125 L 27.117188 70.328125 L 27.117188 83.910156 L 36.15625 83.910156 C 56.128906 83.910156 72.316406 67.691406 72.316406 47.683594 C 72.316406 27.671875 56.128906 11.453125 36.15625 11.453125 Z M 36.15625 11.453125 "/>
<path style=" stroke:none;fill-rule:nonzero;fill:rgb(14.117647%,14.117647%,14.117647%);fill-opacity:1;" d="M 99.980469 74.746094 L 97.601562 74.746094 L 97.601562 79.59375 L 95.527344 79.59375 L 95.527344 68.121094 L 97.601562 68.121094 L 97.601562 72.972656 L 100.023438 72.972656 L 103.742188 68.121094 L 105.96875 68.121094 L 101.625 73.644531 L 106.273438 79.601562 L 103.828125 79.601562 Z M 106.855469 73.859375 C 106.855469 70.4375 109.386719 68.015625 112.824219 68.015625 C 116.261719 68.015625 118.769531 70.4375 118.769531 73.859375 C 118.769531 77.285156 116.261719 79.726562 112.824219 79.726562 C 109.386719 79.726562 106.855469 77.277344 106.855469 73.859375 Z M 116.675781 73.859375 C 116.675781 71.414062 115.03125 69.832031 112.828125 69.832031 C 110.625 69.832031 108.957031 71.414062 108.957031 73.859375 C 108.957031 76.308594 110.621094 77.910156 112.828125 77.910156 C 115.035156 77.910156 116.675781 76.304688 116.675781 73.859375 Z M 137.945312 68.121094 L 137.945312 79.59375 L 121.625 79.59375 L 121.625 68.121094 L 123.699219 68.121094 L 123.699219 77.777344 L 128.761719 77.777344 L 128.761719 68.121094 L 130.835938 68.121094 L 130.835938 77.777344 L 135.871094 77.777344 L 135.871094 68.121094 Z M 152.128906 74.550781 L 142.832031 74.550781 C 143.089844 76.566406 144.714844 77.910156 146.984375 77.910156 C 148.328125 77.910156 149.449219 77.453125 150.292969 76.519531 L 151.4375 77.863281 C 150.398438 79.074219 148.820312 79.726562 146.921875 79.726562 C 143.226562 79.726562 140.761719 77.277344 140.761719 73.859375 C 140.761719 70.464844 143.207031 68.015625 146.511719 68.015625 C 149.820312 68.015625 152.175781 70.398438 152.175781 73.925781 C 152.164062 74.136719 152.148438 74.34375 152.128906 74.550781 Z M 142.828125 73.058594 L 150.175781 73.058594 C 149.960938 71.128906 148.511719 69.765625 146.503906 69.765625 C 144.515625 69.765625 143.042969 71.109375 142.828125 73.058594 Z M 164.878906 68.121094 L 164.878906 79.59375 L 162.800781 79.59375 L 162.800781 69.9375 L 157.871094 69.9375 L 157.742188 72.492188 C 157.546875 76.542969 157.007812 79.765625 154.410156 79.765625 C 154.023438 79.765625 153.609375 79.703125 153.136719 79.570312 L 153.265625 77.820312 C 153.460938 77.863281 153.632812 77.882812 153.785156 77.882812 C 155.644531 77.882812 155.730469 75.066406 155.882812 72.363281 L 156.078125 68.117188 L 164.878906 68.117188 Z M 179.0625 74.550781 L 169.765625 74.550781 C 170.023438 76.566406 171.648438 77.910156 173.921875 77.910156 C 175.261719 77.910156 176.386719 77.453125 177.226562 76.519531 L 178.371094 77.863281 C 177.332031 79.074219 175.753906 79.726562 173.855469 79.726562 C 170.160156 79.726562 167.695312 77.277344 167.695312 73.859375 C 167.695312 70.464844 170.140625 68.015625 173.445312 68.015625 C 176.753906 68.015625 179.113281 70.398438 179.113281 73.925781 C 179.097656 74.136719 179.082031 74.34375 179.0625 74.550781 Z M 169.761719 73.058594 L 177.109375 73.058594 C 176.894531 71.128906 175.449219 69.765625 173.4375 69.765625 C 171.449219 69.765625 169.980469 71.109375 169.761719 73.058594 Z M 186.628906 74.746094 L 184.246094 74.746094 L 184.246094 79.59375 L 182.171875 79.59375 L 182.171875 68.121094 L 184.246094 68.121094 L 184.246094 72.972656 L 186.667969 72.972656 L 190.386719 68.121094 L 192.613281 68.121094 L 188.269531 73.644531 L 192.917969 79.601562 L 190.472656 79.601562 Z M 210.273438 77.710938 L 210.273438 79.59375 L 199.398438 79.59375 L 199.398438 78.121094 L 205.558594 72.171875 C 207.15625 70.609375 207.457031 69.65625 207.457031 68.707031 C 207.457031 67.148438 206.355469 66.191406 204.238281 66.191406 C 202.613281 66.191406 201.296875 66.714844 200.367188 67.839844 L 198.894531 66.5625 C 200.0625 65.113281 202.074219 64.265625 204.429688 64.265625 C 207.582031 64.265625 209.613281 65.890625 209.613281 68.484375 C 209.613281 69.957031 209.179688 71.277344 207.128906 73.25 L 202.503906 77.710938 Z M 212.070312 78.230469 C 212.070312 77.363281 212.738281 76.757812 213.542969 76.757812 C 214.316406 76.757812 214.96875 77.363281 214.96875 78.230469 C 214.96875 79.101562 214.316406 79.726562 213.542969 79.726562 C 212.738281 79.726562 212.070312 79.101562 212.070312 78.230469 Z M 216.605469 72.019531 C 216.605469 67.082031 219.242188 64.265625 222.789062 64.265625 C 226.3125 64.265625 228.949219 67.082031 228.949219 72.019531 C 228.949219 76.957031 226.3125 79.773438 222.789062 79.773438 C 219.246094 79.773438 216.605469 76.957031 216.605469 72.019531 Z M 226.792969 72.019531 C 226.792969 68.140625 225.148438 66.191406 222.789062 66.191406 C 220.410156 66.191406 218.769531 68.140625 218.769531 72.019531 C 218.769531 75.894531 220.410156 77.84375 222.789062 77.84375 C 225.148438 77.84375 226.792969 75.894531 226.792969 72.019531 Z M 226.792969 72.019531 "/>
</g>
</svg>
