<?xml version="1.0" encoding="UTF-8"?>
<svg xmlns="http://www.w3.org/2000/svg" xmlns:xlink="http://www.w3.org/1999/xlink" width="229px" height="44px" viewBox="0 0 228 44" version="1.1">
<g id="surface1">
<path style=" stroke:none;fill-rule:nonzero;fill:rgb(29.803922%,74.509804%,25.882353%);fill-opacity:1;" d="M 88.769531 9.355469 C 81.367188 9.355469 74.65625 15.554688 74.65625 23 C 74.65625 28.691406 78.652344 32.976562 84.453125 32.976562 C 91.90625 32.976562 98.617188 26.84375 98.617188 19.328125 C 98.617188 13.644531 94.625 9.355469 88.769531 9.355469 Z M 85.253906 28.464844 C 81.898438 28.464844 79.554688 25.835938 79.554688 22.363281 C 79.554688 17.765625 83.613281 13.890625 87.914062 13.890625 C 91.328125 13.890625 93.613281 16.519531 93.613281 20.023438 C 93.667969 24.65625 89.621094 28.464844 85.253906 28.464844 Z M 85.253906 28.464844 "/>
<path style=" stroke:none;fill-rule:nonzero;fill:rgb(29.803922%,74.509804%,25.882353%);fill-opacity:1;" d="M 107.726562 16.328125 C 107.726562 14.730469 109.375 13.644531 111.789062 13.644531 C 114.289062 13.644531 116.632812 14.832031 118.28125 15.972656 L 121.265625 12.03125 C 118.882812 10.269531 115.953125 9.34375 112.957031 9.402344 C 107.417969 9.402344 102.730469 12.660156 102.730469 17.464844 C 102.730469 24.390625 114.34375 22.015625 114.34375 25.785156 C 114.34375 27.441406 112.636719 28.679688 109.828125 28.679688 C 107.144531 28.628906 104.554688 27.703125 102.480469 26.050781 L 99.496094 29.878906 C 102.152344 31.984375 105.496094 33.101562 108.921875 33.03125 C 114.835938 33.03125 119.359375 29.566406 119.359375 24.917969 C 119.332031 17.832031 107.726562 19.898438 107.726562 16.328125 Z M 107.726562 16.328125 "/>
<path style=" stroke:none;fill-rule:nonzero;fill:rgb(29.803922%,74.509804%,25.882353%);fill-opacity:1;" d="M 156.71875 0 L 141.378906 25.121094 L 135.152344 0 L 128.867188 0 L 122.957031 32.558594 L 128.070312 32.558594 L 132.171875 9.789062 L 137.972656 32.558594 L 141.96875 32.558594 L 155.957031 9.789062 L 151.804688 32.558594 L 156.917969 32.558594 L 162.847656 0 Z M 156.71875 0 "/>
<path style=" stroke:none;fill-rule:nonzero;fill:rgb(29.803922%,74.509804%,25.882353%);fill-opacity:1;" d="M 184.148438 9.820312 L 183.773438 11.886719 C 182.9375 11.058594 181.933594 10.40625 180.828125 9.96875 C 179.722656 9.535156 178.53125 9.324219 177.339844 9.355469 C 170.949219 9.355469 163.800781 15.144531 163.800781 23 C 163.800781 28.789062 167.957031 32.976562 173.015625 32.976562 C 175.710938 33 178.332031 32.101562 180.414062 30.441406 L 180.046875 32.507812 L 184.890625 32.507812 L 189.042969 9.769531 L 184.148438 9.769531 Z M 181.324219 25.324219 C 180.46875 26.285156 179.414062 27.054688 178.230469 27.589844 C 177.046875 28.125 175.761719 28.410156 174.457031 28.425781 C 171.097656 28.425781 168.703125 25.738281 168.703125 22.226562 C 168.703125 17.621094 172.859375 13.851562 177.0625 13.851562 C 180.367188 13.851562 182.066406 15.605469 182.816406 17.003906 Z M 181.324219 25.324219 "/>
<path style=" stroke:none;fill-rule:nonzero;fill:rgb(29.803922%,74.509804%,25.882353%);fill-opacity:1;" d="M 205.402344 9.355469 C 203.171875 9.347656 201.015625 10.125 199.328125 11.542969 L 199.59375 9.835938 L 194.75 9.835938 L 190.597656 32.578125 L 195.492188 32.578125 L 198.476562 16.195312 C 200.082031 14.816406 202.140625 14.039062 204.285156 14.003906 C 205.074219 14.035156 205.863281 14.15625 206.625 14.367188 L 208.542969 9.988281 C 207.554688 9.5625 206.484375 9.347656 205.402344 9.355469 Z M 205.402344 9.355469 "/>
<path style=" stroke:none;fill-rule:nonzero;fill:rgb(29.803922%,74.509804%,25.882353%);fill-opacity:1;" d="M 219.757812 14.316406 L 226.816406 14.316406 L 227.667969 9.820312 L 220.628906 9.820312 L 221.695312 3.777344 L 216.847656 3.777344 L 215.726562 9.820312 L 210.667969 9.820312 L 209.832031 14.316406 L 214.929688 14.316406 L 213.066406 24.445312 C 212.109375 29.667969 214.824219 33.03125 220.363281 33.03125 C 222.402344 33.007812 224.421875 32.640625 226.328125 31.945312 L 225.6875 27.652344 C 224.386719 28.125 223.015625 28.386719 221.625 28.425781 C 218.644531 28.425781 217.523438 26.722656 218.015625 24.046875 Z M 219.757812 14.316406 "/>
<path style=" stroke:none;fill-rule:nonzero;fill:rgb(29.803922%,74.509804%,25.882353%);fill-opacity:1;" d="M 58.464844 0 L 48.285156 0 L 46.582031 9.511719 L 51.695312 9.511719 L 52.546875 4.753906 L 57.871094 4.753906 C 63.515625 4.753906 67.1875 8.695312 67.1875 14.214844 C 67.1875 21.808594 60.90625 27.789062 53.652344 27.789062 L 35.777344 27.789062 L 40.890625 0 L 22.730469 0 L 21.878906 4.753906 L 34.863281 4.753906 L 29.75 32.558594 L 52.660156 32.558594 C 63.203125 32.558594 72.472656 24.136719 72.472656 13.59375 C 72.367188 5.738281 66.828125 0 58.464844 0 Z M 58.464844 0 "/>
<path style=" stroke:none;fill-rule:nonzero;fill:rgb(29.803922%,74.509804%,25.882353%);fill-opacity:1;" d="M 16.933594 8.695312 L 16.082031 11.761719 L 0 11.761719 L 0.851562 8.695312 Z M 16.933594 8.695312 "/>
<path style=" stroke:none;fill-rule:nonzero;fill:rgb(29.803922%,74.509804%,25.882353%);fill-opacity:1;" d="M 21.128906 15.6875 L 20.277344 18.789062 L 4.246094 18.789062 L 5.042969 15.6875 Z M 21.128906 15.6875 "/>
<path style=" stroke:none;fill-rule:nonzero;fill:rgb(29.803922%,74.509804%,25.882353%);fill-opacity:1;" d="M 25.351562 22.699219 L 24.554688 25.800781 L 8.46875 25.800781 L 9.320312 22.699219 Z M 25.351562 22.699219 "/>
<path style=" stroke:none;fill-rule:nonzero;fill:rgb(29.803922%,74.509804%,25.882353%);fill-opacity:1;" d="M 56.222656 42.917969 C 57.859375 41.515625 58.164062 39.253906 56.898438 37.863281 C 55.636719 36.476562 53.289062 36.484375 51.640625 37.863281 C 49.996094 39.242188 49.707031 41.5625 50.992188 42.953125 C 52.277344 44.347656 54.601562 44.328125 56.222656 42.917969 Z M 56.222656 42.917969 "/>
<path style=" stroke:none;fill-rule:nonzero;fill:rgb(29.803922%,74.509804%,25.882353%);fill-opacity:1;" d="M 38.507812 42.941406 C 40.140625 41.539062 40.445312 39.277344 39.179688 37.886719 C 37.917969 36.492188 35.570312 36.503906 33.929688 37.910156 C 32.285156 39.316406 31.988281 41.578125 33.257812 42.964844 C 34.523438 44.351562 36.871094 44.34375 38.507812 42.941406 Z M 38.507812 42.941406 "/>
</g>
</svg>
