<?xml version="1.0" encoding="UTF-8"?>
<svg xmlns="http://www.w3.org/2000/svg" xmlns:xlink="http://www.w3.org/1999/xlink" width="229px" height="45px" viewBox="0 0 227 45" version="1.1">
<g id="surface1">
<path style=" stroke:none;fill-rule:nonzero;fill:rgb(100%,80.392157%,0%);fill-opacity:1;" d="M 4.765625 7.046875 C 0.808594 7.046875 -1.417969 11.609375 1.011719 14.75 L 23.015625 43.15625 C 24.917969 45.613281 28.621094 45.613281 30.527344 43.15625 L 52.53125 14.75 C 54.960938 11.617188 52.734375 7.046875 48.777344 7.046875 Z M 4.765625 7.046875 "/>
<path style=" stroke:none;fill-rule:nonzero;fill:rgb(11.372549%,11.372549%,10.588235%);fill-opacity:1;" d="M 4.488281 19.234375 C 7.070312 9.386719 16.054688 2.105469 26.773438 2.105469 C 37.488281 2.105469 46.46875 9.386719 49.058594 19.234375 L 50.644531 17.1875 C 47.328125 7.222656 37.890625 0.00390625 26.773438 0.00390625 C 15.65625 0.00390625 6.222656 7.222656 2.902344 17.1875 Z M 4.488281 19.234375 "/>
<path style=" stroke:none;fill-rule:nonzero;fill:rgb(100%,92.941176%,0%);fill-opacity:1;" d="M 23.015625 43.148438 C 24.917969 45.605469 28.621094 45.605469 30.527344 43.148438 L 49.054688 19.234375 C 46.46875 9.386719 37.488281 2.105469 26.769531 2.105469 C 16.054688 2.105469 7.070312 9.386719 4.480469 19.234375 Z M 23.015625 43.148438 "/>
<path style=" stroke:none;fill-rule:nonzero;fill:rgb(11.372549%,11.372549%,10.588235%);fill-opacity:1;" d="M 34.238281 19.933594 L 34.238281 23.375 L 28.800781 23.375 L 28.800781 35.300781 L 24.742188 35.300781 L 24.742188 23.375 L 19.304688 23.375 L 19.304688 19.933594 Z M 34.238281 19.933594 "/>
<path style=" stroke:none;fill-rule:nonzero;fill:rgb(11.372549%,11.372549%,10.588235%);fill-opacity:1;" d="M 34.238281 14.761719 L 19.296875 14.761719 L 19.296875 18.199219 L 34.238281 18.199219 Z M 34.238281 14.761719 "/>
<path style=" stroke:none;fill-rule:nonzero;fill:rgb(11.372549%,11.372549%,10.588235%);fill-opacity:1;" d="M 6.699219 22.085938 C 8.144531 12.347656 16.578125 4.839844 26.773438 4.839844 C 36.96875 4.839844 45.402344 12.347656 46.847656 22.085938 L 48.019531 20.574219 C 45.957031 10.785156 37.230469 3.4375 26.773438 3.4375 C 16.316406 3.4375 7.59375 10.785156 5.527344 20.574219 Z M 6.699219 22.085938 "/>
<path style=" stroke:none;fill-rule:nonzero;fill:rgb(11.372549%,11.372549%,10.588235%);fill-opacity:1;" d="M 63.421875 15.464844 C 63.527344 15.359375 63.675781 15.304688 63.851562 15.304688 L 65.613281 15.304688 C 65.796875 15.304688 65.9375 15.359375 66.042969 15.464844 C 66.148438 15.566406 66.203125 15.714844 66.203125 15.894531 L 66.203125 23.941406 L 69.589844 19.738281 C 69.757812 19.519531 69.992188 19.410156 70.292969 19.410156 L 72.484375 19.410156 C 72.65625 19.410156 72.777344 19.4375 72.863281 19.507812 C 72.949219 19.574219 72.992188 19.660156 72.992188 19.765625 C 72.992188 19.871094 72.929688 19.992188 72.816406 20.140625 L 69.117188 24.441406 L 73.046875 29.429688 C 73.152344 29.578125 73.199219 29.699219 73.199219 29.804688 C 73.199219 29.910156 73.15625 29.996094 73.066406 30.0625 C 72.972656 30.128906 72.851562 30.160156 72.691406 30.160156 L 70.519531 30.160156 C 70.21875 30.160156 69.972656 30.042969 69.796875 29.804688 L 67.25 26.621094 L 66.191406 27.839844 L 66.191406 29.566406 C 66.191406 29.75 66.140625 29.890625 66.03125 29.996094 C 65.925781 30.097656 65.785156 30.15625 65.601562 30.15625 L 63.839844 30.15625 C 63.65625 30.15625 63.515625 30.105469 63.410156 29.996094 C 63.304688 29.890625 63.257812 29.75 63.257812 29.566406 L 63.257812 15.898438 C 63.261719 15.710938 63.320312 15.566406 63.421875 15.464844 Z M 63.421875 15.464844 "/>
<path style=" stroke:none;fill-rule:nonzero;fill:rgb(11.372549%,11.372549%,10.588235%);fill-opacity:1;" d="M 83.363281 29.996094 C 83.257812 29.890625 83.203125 29.75 83.203125 29.566406 L 83.203125 29.074219 C 82.941406 29.429688 82.503906 29.738281 81.894531 29.996094 C 81.28125 30.261719 80.625 30.390625 79.933594 30.390625 C 78.839844 30.390625 77.878906 30.144531 77.058594 29.652344 C 76.234375 29.160156 75.605469 28.476562 75.175781 27.597656 C 74.75 26.746094 74.527344 25.800781 74.527344 24.753906 C 74.527344 23.691406 74.75 22.738281 75.183594 21.886719 C 75.617188 21.039062 76.242188 20.363281 77.050781 19.863281 C 77.859375 19.367188 78.820312 19.121094 79.929688 19.121094 C 80.644531 19.121094 81.292969 19.242188 81.863281 19.496094 C 82.4375 19.742188 82.878906 20.074219 83.191406 20.476562 L 83.191406 19.949219 C 83.191406 19.765625 83.242188 19.625 83.351562 19.519531 C 83.453125 19.414062 83.59375 19.359375 83.777344 19.359375 L 85.5 19.359375 C 85.683594 19.359375 85.824219 19.414062 85.929688 19.519531 C 86.03125 19.625 86.085938 19.765625 86.085938 19.949219 L 86.085938 29.570312 C 86.085938 29.757812 86.039062 29.898438 85.929688 30 C 85.824219 30.105469 85.683594 30.160156 85.5 30.160156 L 83.777344 30.160156 C 83.609375 30.148438 83.464844 30.101562 83.363281 29.996094 Z M 82.503906 22.53125 C 81.964844 21.964844 81.25 21.6875 80.363281 21.6875 C 79.460938 21.6875 78.746094 21.972656 78.207031 22.53125 C 77.675781 23.09375 77.40625 23.832031 77.40625 24.75 C 77.40625 25.640625 77.679688 26.371094 78.226562 26.9375 C 78.769531 27.507812 79.488281 27.789062 80.355469 27.789062 C 81.269531 27.789062 81.992188 27.519531 82.519531 26.972656 C 83.042969 26.433594 83.308594 25.6875 83.308594 24.742188 C 83.320312 23.832031 83.050781 23.09375 82.503906 22.53125 Z M 82.503906 22.53125 "/>
<path style=" stroke:none;fill-rule:nonzero;fill:rgb(11.372549%,11.372549%,10.588235%);fill-opacity:1;" d="M 88.863281 29.066406 C 88.691406 28.949219 88.605469 28.800781 88.605469 28.636719 C 88.605469 28.507812 88.652344 28.371094 88.746094 28.242188 L 89.582031 27.125 C 89.710938 26.953125 89.867188 26.867188 90.035156 26.867188 C 90.164062 26.867188 90.28125 26.898438 90.390625 26.964844 C 90.863281 27.230469 91.359375 27.4375 91.890625 27.59375 C 92.417969 27.75 92.925781 27.824219 93.410156 27.824219 C 93.851562 27.824219 94.226562 27.734375 94.519531 27.550781 C 94.8125 27.363281 94.957031 27.136719 94.957031 26.859375 C 94.957031 26.617188 94.824219 26.429688 94.550781 26.308594 C 94.273438 26.191406 93.925781 26.097656 93.488281 26.03125 L 92.882812 25.953125 C 91.984375 25.808594 91.273438 25.636719 90.753906 25.441406 C 90.234375 25.246094 89.753906 24.933594 89.328125 24.5 C 88.855469 24.027344 88.621094 23.382812 88.621094 22.558594 C 88.621094 21.332031 89.0625 20.453125 89.945312 19.929688 C 90.828125 19.40625 91.867188 19.144531 93.066406 19.144531 C 93.820312 19.144531 94.523438 19.242188 95.171875 19.4375 C 95.816406 19.636719 96.445312 19.9375 97.058594 20.34375 C 97.242188 20.445312 97.335938 20.585938 97.335938 20.773438 C 97.335938 20.890625 97.285156 21.023438 97.175781 21.164062 L 96.355469 22.265625 C 96.226562 22.4375 96.074219 22.515625 95.902344 22.515625 C 95.773438 22.515625 95.652344 22.484375 95.527344 22.417969 C 94.628906 21.933594 93.777344 21.695312 92.964844 21.695312 C 92.609375 21.695312 92.289062 21.765625 91.996094 21.921875 C 91.703125 22.074219 91.554688 22.265625 91.554688 22.5 C 91.554688 22.789062 91.734375 22.996094 92.09375 23.125 C 92.453125 23.253906 92.949219 23.363281 93.59375 23.457031 C 94.632812 23.640625 95.414062 23.820312 95.914062 23.996094 C 96.417969 24.175781 96.863281 24.472656 97.253906 24.886719 C 97.671875 25.375 97.878906 26.03125 97.878906 26.875 C 97.878906 27.996094 97.492188 28.863281 96.730469 29.472656 C 95.957031 30.082031 94.867188 30.386719 93.460938 30.386719 C 91.703125 30.40625 90.179688 29.957031 88.863281 29.066406 Z M 88.863281 29.066406 "/>
<path style=" stroke:none;fill-rule:nonzero;fill:rgb(11.372549%,11.372549%,10.588235%);fill-opacity:1;" d="M 100.054688 29.066406 C 99.882812 28.949219 99.796875 28.800781 99.796875 28.636719 C 99.796875 28.507812 99.84375 28.371094 99.9375 28.242188 L 100.777344 27.125 C 100.90625 26.953125 101.058594 26.867188 101.230469 26.867188 C 101.359375 26.867188 101.472656 26.898438 101.582031 26.964844 C 102.054688 27.230469 102.550781 27.4375 103.082031 27.59375 C 103.609375 27.75 104.117188 27.824219 104.601562 27.824219 C 105.042969 27.824219 105.417969 27.734375 105.710938 27.550781 C 106.003906 27.363281 106.152344 27.136719 106.152344 26.859375 C 106.152344 26.617188 106.015625 26.429688 105.742188 26.308594 C 105.464844 26.191406 105.117188 26.097656 104.683594 26.03125 L 104.074219 25.953125 C 103.175781 25.808594 102.464844 25.636719 101.945312 25.441406 C 101.425781 25.246094 100.945312 24.933594 100.519531 24.5 C 100.046875 24.027344 99.816406 23.382812 99.816406 22.558594 C 99.816406 21.332031 100.253906 20.453125 101.136719 19.929688 C 102.019531 19.40625 103.058594 19.144531 104.257812 19.144531 C 105.011719 19.144531 105.71875 19.242188 106.367188 19.4375 C 107.007812 19.636719 107.640625 19.9375 108.25 20.34375 C 108.433594 20.445312 108.527344 20.585938 108.527344 20.773438 C 108.527344 20.890625 108.476562 21.023438 108.367188 21.164062 L 107.546875 22.265625 C 107.417969 22.4375 107.265625 22.515625 107.09375 22.515625 C 106.964844 22.515625 106.84375 22.484375 106.722656 22.417969 C 105.820312 21.933594 104.96875 21.695312 104.15625 21.695312 C 103.800781 21.695312 103.480469 21.765625 103.1875 21.921875 C 102.894531 22.074219 102.746094 22.265625 102.746094 22.5 C 102.746094 22.789062 102.925781 22.996094 103.285156 23.125 C 103.648438 23.253906 104.144531 23.363281 104.785156 23.457031 C 105.828125 23.640625 106.605469 23.820312 107.105469 23.996094 C 107.609375 24.175781 108.054688 24.472656 108.445312 24.886719 C 108.863281 25.375 109.070312 26.03125 109.070312 26.875 C 109.070312 27.996094 108.6875 28.863281 107.921875 29.472656 C 107.148438 30.082031 106.058594 30.386719 104.652344 30.386719 C 102.894531 30.40625 101.371094 29.957031 100.054688 29.066406 Z M 100.054688 29.066406 "/>
<path style=" stroke:none;fill-rule:nonzero;fill:rgb(11.372549%,11.372549%,10.588235%);fill-opacity:1;" d="M 119.695312 29.996094 C 119.589844 29.890625 119.535156 29.75 119.535156 29.566406 L 119.535156 29.074219 C 119.269531 29.429688 118.835938 29.738281 118.222656 29.996094 C 117.613281 30.261719 116.957031 30.390625 116.265625 30.390625 C 115.167969 30.390625 114.207031 30.144531 113.386719 29.652344 C 112.566406 29.160156 111.9375 28.476562 111.507812 27.597656 C 111.078125 26.746094 110.859375 25.800781 110.859375 24.753906 C 110.859375 23.691406 111.078125 22.738281 111.515625 21.886719 C 111.949219 21.039062 112.574219 20.363281 113.382812 19.863281 C 114.1875 19.367188 115.152344 19.121094 116.257812 19.121094 C 116.976562 19.121094 117.625 19.242188 118.195312 19.496094 C 118.769531 19.742188 119.210938 20.074219 119.523438 20.476562 L 119.523438 19.949219 C 119.523438 19.765625 119.570312 19.625 119.679688 19.519531 C 119.785156 19.414062 119.925781 19.359375 120.109375 19.359375 L 121.832031 19.359375 C 122.015625 19.359375 122.15625 19.414062 122.257812 19.519531 C 122.363281 19.625 122.417969 19.765625 122.417969 19.949219 L 122.417969 29.570312 C 122.417969 29.757812 122.367188 29.898438 122.257812 30 C 122.15625 30.105469 122.015625 30.160156 121.832031 30.160156 L 120.109375 30.160156 C 119.9375 30.148438 119.796875 30.101562 119.695312 29.996094 Z M 118.84375 22.53125 C 118.304688 21.964844 117.585938 21.6875 116.699219 21.6875 C 115.800781 21.6875 115.082031 21.972656 114.542969 22.53125 C 114.011719 23.09375 113.742188 23.832031 113.742188 24.75 C 113.742188 25.640625 114.019531 26.371094 114.5625 26.9375 C 115.109375 27.507812 115.824219 27.789062 116.695312 27.789062 C 117.605469 27.789062 118.328125 27.519531 118.855469 26.972656 C 119.382812 26.433594 119.644531 25.6875 119.644531 24.742188 C 119.65625 23.832031 119.382812 23.09375 118.84375 22.53125 Z M 118.84375 22.53125 "/>
<path style=" stroke:none;fill-rule:nonzero;fill:rgb(11.372549%,11.372549%,10.588235%);fill-opacity:1;" d="M 130.71875 22.136719 C 130.78125 22.199219 130.8125 22.285156 130.8125 22.390625 L 130.8125 23.273438 C 130.8125 23.378906 130.78125 23.464844 130.71875 23.527344 C 130.660156 23.585938 130.574219 23.617188 130.46875 23.617188 L 125.105469 23.617188 C 125 23.617188 124.914062 23.585938 124.855469 23.527344 C 124.792969 23.464844 124.761719 23.378906 124.761719 23.273438 L 124.761719 22.1875 C 124.761719 22.019531 124.824219 21.878906 124.957031 21.773438 L 126.066406 20.871094 L 127.8125 19.464844 C 128.246094 19.121094 128.535156 18.824219 128.6875 18.585938 C 128.835938 18.339844 128.90625 18.070312 128.90625 17.761719 C 128.90625 17.414062 128.789062 17.148438 128.558594 16.964844 C 128.324219 16.78125 128.03125 16.695312 127.675781 16.695312 C 127.132812 16.695312 126.722656 17.03125 126.457031 17.703125 C 126.390625 17.867188 126.285156 17.953125 126.152344 17.953125 C 126.128906 17.953125 126.089844 17.945312 126.023438 17.929688 L 124.941406 17.664062 C 124.761719 17.621094 124.675781 17.523438 124.675781 17.375 C 124.675781 17.3125 124.683594 17.269531 124.703125 17.242188 C 124.835938 16.902344 125.027344 16.589844 125.265625 16.289062 C 125.503906 15.988281 125.796875 15.730469 126.144531 15.515625 C 126.585938 15.25 127.09375 15.113281 127.675781 15.113281 C 128.3125 15.113281 128.863281 15.238281 129.328125 15.488281 C 129.796875 15.734375 130.144531 16.074219 130.378906 16.492188 C 130.601562 16.890625 130.71875 17.3125 130.71875 17.761719 C 130.71875 18.292969 130.566406 18.789062 130.253906 19.269531 C 129.949219 19.746094 129.488281 20.238281 128.882812 20.75 L 128.417969 21.128906 L 127.914062 21.515625 C 127.683594 21.714844 127.449219 21.898438 127.230469 22.058594 L 130.46875 22.058594 C 130.578125 22.046875 130.660156 22.074219 130.71875 22.136719 Z M 130.71875 22.136719 "/>
<path style=" stroke:none;fill-rule:nonzero;fill:rgb(11.372549%,11.372549%,10.588235%);fill-opacity:1;" d="M 138.992188 20.324219 C 139.054688 20.386719 139.082031 20.472656 139.082031 20.574219 L 139.082031 21.453125 C 139.082031 21.558594 139.054688 21.644531 138.992188 21.707031 C 138.929688 21.769531 138.84375 21.796875 138.742188 21.796875 L 138.042969 21.796875 L 138.042969 23.265625 C 138.042969 23.371094 138.011719 23.457031 137.949219 23.519531 C 137.890625 23.582031 137.804688 23.609375 137.699219 23.609375 L 136.578125 23.609375 C 136.476562 23.609375 136.390625 23.582031 136.328125 23.519531 C 136.265625 23.457031 136.238281 23.371094 136.238281 23.265625 L 136.238281 21.796875 L 132.507812 21.796875 C 132.402344 21.796875 132.316406 21.769531 132.257812 21.707031 C 132.195312 21.644531 132.164062 21.558594 132.164062 21.453125 L 132.164062 20.574219 C 132.164062 20.421875 132.21875 20.28125 132.324219 20.152344 L 136.511719 15.421875 C 136.617188 15.292969 136.757812 15.222656 136.933594 15.222656 L 137.699219 15.222656 C 137.804688 15.222656 137.890625 15.253906 137.949219 15.316406 C 138.011719 15.378906 138.042969 15.464844 138.042969 15.566406 L 138.042969 20.226562 L 138.742188 20.226562 C 138.84375 20.230469 138.929688 20.261719 138.992188 20.324219 Z M 134.523438 20.230469 L 136.242188 20.230469 L 136.242188 18.203125 Z M 134.523438 20.230469 "/>
<path style=" stroke:none;fill-rule:nonzero;fill:rgb(11.372549%,11.372549%,10.588235%);fill-opacity:1;" d="M 153.148438 20.847656 C 154.070312 21.824219 154.535156 23.121094 154.535156 24.761719 C 154.535156 26.394531 154.070312 27.699219 153.148438 28.664062 C 152.222656 29.625 151.09375 30.117188 149.785156 30.117188 C 148.328125 30.117188 147.132812 29.449219 146.210938 28.101562 L 146.019531 29.511719 C 145.953125 29.761719 145.832031 29.886719 145.648438 29.886719 L 143.847656 29.886719 C 143.601562 29.886719 143.472656 29.761719 143.472656 29.511719 L 143.472656 16.035156 C 143.472656 15.789062 143.597656 15.660156 143.847656 15.660156 L 145.878906 15.660156 C 146.125 15.660156 146.253906 15.785156 146.253906 16.035156 L 146.253906 21.226562 C 147.28125 20.011719 148.492188 19.402344 149.882812 19.402344 C 151.125 19.398438 152.222656 19.882812 153.148438 20.847656 Z M 150.941406 26.996094 C 151.46875 26.460938 151.734375 25.714844 151.734375 24.761719 C 151.734375 23.8125 151.464844 23.070312 150.941406 22.53125 C 150.414062 21.996094 149.761719 21.726562 148.976562 21.726562 C 148.1875 21.726562 147.507812 22 146.96875 22.546875 C 146.425781 23.09375 146.148438 23.851562 146.148438 24.816406 C 146.148438 25.78125 146.417969 26.53125 146.957031 27.035156 C 147.503906 27.539062 148.15625 27.796875 148.941406 27.796875 C 149.75 27.800781 150.414062 27.53125 150.941406 26.996094 Z M 150.941406 26.996094 "/>
<path style=" stroke:none;fill-rule:nonzero;fill:rgb(11.372549%,11.372549%,10.588235%);fill-opacity:1;" d="M 166.113281 19.65625 C 166.359375 19.65625 166.488281 19.777344 166.488281 20.03125 L 166.488281 29.503906 C 166.488281 29.757812 166.363281 29.878906 166.113281 29.878906 L 164.140625 29.878906 C 163.933594 29.878906 163.8125 29.757812 163.769531 29.503906 L 163.636719 28.511719 C 162.671875 29.578125 161.480469 30.113281 160.078125 30.113281 C 157.628906 30.113281 156.3125 28.394531 156.3125 25.214844 L 156.3125 20.023438 C 156.3125 19.777344 156.433594 19.648438 156.6875 19.648438 L 158.808594 19.648438 C 159.0625 19.648438 159.183594 19.773438 159.183594 20.023438 L 159.183594 25.214844 C 159.183594 26.679688 159.949219 27.539062 161.253906 27.539062 C 162.597656 27.539062 163.53125 26.59375 163.617188 24.601562 L 163.617188 20.019531 C 163.617188 19.773438 163.738281 19.644531 163.988281 19.644531 L 166.113281 19.644531 Z M 166.113281 19.65625 "/>
<path style=" stroke:none;fill-rule:nonzero;fill:rgb(11.372549%,11.372549%,10.588235%);fill-opacity:1;" d="M 170.210938 29.636719 C 169.488281 29.363281 168.910156 29.019531 168.5 28.585938 C 168.332031 28.414062 168.316406 28.242188 168.464844 28.058594 L 169.179688 26.902344 C 169.304688 26.695312 169.492188 26.664062 169.730469 26.832031 C 170.0625 27.125 170.503906 27.363281 171.035156 27.550781 C 171.570312 27.734375 172.09375 27.824219 172.617188 27.824219 C 173.679688 27.824219 174.292969 27.433594 174.292969 26.746094 C 174.292969 26.277344 173.835938 25.96875 173.421875 25.867188 C 173.222656 25.816406 172.878906 25.742188 172.394531 25.65625 C 171.15625 25.4375 170.203125 25.089844 169.546875 24.625 C 168.894531 24.15625 168.554688 23.46875 168.554688 22.558594 C 168.554688 21.578125 168.929688 20.808594 169.664062 20.257812 C 170.398438 19.703125 171.390625 19.425781 172.660156 19.425781 C 174.042969 19.425781 175.25 19.800781 176.289062 20.542969 C 176.496094 20.667969 176.527344 20.851562 176.371094 21.074219 L 175.644531 22.191406 C 175.523438 22.375 175.339844 22.414062 175.121094 22.308594 C 174.421875 21.839844 173.652344 21.601562 172.792969 21.609375 C 171.683594 21.609375 171.132812 21.914062 171.132812 22.523438 C 171.132812 22.941406 171.582031 23.222656 172.019531 23.335938 C 172.242188 23.390625 172.546875 23.457031 172.957031 23.535156 C 173.042969 23.542969 173.117188 23.566406 173.167969 23.585938 C 174.402344 23.84375 175.328125 24.199219 175.945312 24.648438 C 176.5625 25.097656 176.871094 25.785156 176.871094 26.695312 C 176.871094 27.695312 176.496094 28.515625 175.769531 29.132812 C 175.027344 29.753906 173.988281 30.0625 172.640625 30.0625 C 171.746094 30.050781 170.933594 29.914062 170.210938 29.636719 Z M 170.210938 29.636719 "/>
<path style=" stroke:none;fill-rule:nonzero;fill:rgb(11.372549%,11.372549%,10.588235%);fill-opacity:1;" d="M 180.1875 17.953125 C 179.730469 17.953125 179.34375 17.792969 179.019531 17.453125 C 178.695312 17.128906 178.535156 16.734375 178.535156 16.28125 C 178.535156 15.832031 178.695312 15.4375 179.019531 15.105469 C 179.34375 14.773438 179.738281 14.609375 180.1875 14.609375 C 180.636719 14.609375 181.027344 14.769531 181.359375 15.105469 C 181.683594 15.4375 181.84375 15.832031 181.84375 16.28125 C 181.84375 16.742188 181.683594 17.128906 181.359375 17.453125 C 181.027344 17.785156 180.636719 17.953125 180.1875 17.953125 Z M 179.113281 29.878906 C 178.867188 29.878906 178.738281 29.753906 178.738281 29.503906 L 178.738281 20.027344 C 178.738281 19.78125 178.859375 19.652344 179.113281 19.652344 L 181.234375 19.652344 C 181.480469 19.652344 181.609375 19.777344 181.609375 20.027344 L 181.609375 29.503906 C 181.609375 29.753906 181.488281 29.878906 181.234375 29.878906 Z M 179.113281 29.878906 "/>
<path style=" stroke:none;fill-rule:nonzero;fill:rgb(11.372549%,11.372549%,10.588235%);fill-opacity:1;" d="M 193.363281 20.6875 C 194.082031 21.535156 194.441406 22.746094 194.441406 24.292969 L 194.441406 29.503906 C 194.441406 29.753906 194.320312 29.878906 194.066406 29.878906 L 191.945312 29.878906 C 191.691406 29.878906 191.570312 29.753906 191.570312 29.503906 L 191.570312 24.292969 C 191.570312 22.832031 190.828125 21.988281 189.519531 21.988281 C 188.113281 21.988281 187.15625 22.917969 187.082031 24.90625 L 187.082031 29.507812 C 187.082031 29.761719 186.960938 29.882812 186.710938 29.882812 L 184.585938 29.882812 C 184.339844 29.882812 184.210938 29.761719 184.210938 29.507812 L 184.210938 20.035156 C 184.210938 19.789062 184.332031 19.660156 184.585938 19.660156 L 186.574219 19.660156 C 186.757812 19.660156 186.882812 19.78125 186.949219 20.035156 L 187.066406 21.011719 C 187.988281 19.949219 189.121094 19.425781 190.46875 19.425781 C 191.679688 19.414062 192.640625 19.832031 193.363281 20.6875 Z M 193.363281 20.6875 "/>
<path style=" stroke:none;fill-rule:nonzero;fill:rgb(11.372549%,11.372549%,10.588235%);fill-opacity:1;" d="M 204.886719 20.871094 C 205.816406 21.851562 206.289062 23.136719 206.289062 24.722656 C 206.289062 24.902344 206.277344 25.046875 206.269531 25.152344 C 206.234375 25.394531 206.097656 25.507812 205.859375 25.507812 L 198.800781 25.507812 C 199.058594 27.144531 200.058594 27.953125 201.800781 27.953125 C 202.914062 27.953125 203.832031 27.511719 204.539062 26.644531 C 204.722656 26.460938 204.898438 26.457031 205.066406 26.628906 L 205.96875 27.507812 C 206.144531 27.710938 206.125 27.90625 205.914062 28.121094 C 204.820312 29.441406 203.378906 30.097656 201.582031 30.097656 C 199.984375 30.097656 198.683594 29.601562 197.679688 28.617188 C 196.683594 27.636719 196.175781 26.363281 196.175781 24.816406 C 196.175781 23.296875 196.640625 22.011719 197.578125 20.96875 C 198.507812 19.925781 199.75 19.402344 201.28125 19.402344 C 202.746094 19.394531 203.945312 19.882812 204.886719 20.871094 Z M 198.757812 23.765625 L 203.847656 23.765625 C 203.667969 22.300781 202.75 21.515625 201.367188 21.515625 C 199.957031 21.515625 198.960938 22.320312 198.757812 23.765625 Z M 198.757812 23.765625 "/>
<path style=" stroke:none;fill-rule:nonzero;fill:rgb(11.372549%,11.372549%,10.588235%);fill-opacity:1;" d="M 209.363281 29.636719 C 208.640625 29.363281 208.066406 29.019531 207.65625 28.585938 C 207.480469 28.414062 207.472656 28.242188 207.617188 28.058594 L 208.335938 26.902344 C 208.457031 26.695312 208.648438 26.664062 208.886719 26.832031 C 209.214844 27.125 209.65625 27.363281 210.1875 27.550781 C 210.722656 27.734375 211.25 27.824219 211.769531 27.824219 C 212.832031 27.824219 213.445312 27.433594 213.445312 26.746094 C 213.445312 26.277344 212.984375 25.96875 212.578125 25.867188 C 212.375 25.816406 212.03125 25.742188 211.546875 25.65625 C 210.3125 25.4375 209.355469 25.089844 208.703125 24.625 C 208.046875 24.15625 207.710938 23.46875 207.710938 22.558594 C 207.710938 21.578125 208.082031 20.808594 208.816406 20.257812 C 209.550781 19.703125 210.542969 19.425781 211.8125 19.425781 C 213.195312 19.425781 214.402344 19.800781 215.441406 20.542969 C 215.648438 20.667969 215.679688 20.851562 215.519531 21.074219 L 214.800781 22.191406 C 214.675781 22.375 214.492188 22.414062 214.273438 22.308594 C 213.574219 21.839844 212.800781 21.601562 211.945312 21.609375 C 210.839844 21.609375 210.289062 21.914062 210.289062 22.523438 C 210.289062 22.941406 210.734375 23.222656 211.175781 23.335938 C 211.394531 23.390625 211.703125 23.457031 212.113281 23.535156 C 212.199219 23.542969 212.269531 23.566406 212.320312 23.585938 C 213.554688 23.84375 214.480469 24.199219 215.097656 24.648438 C 215.71875 25.097656 216.023438 25.785156 216.023438 26.695312 C 216.023438 27.695312 215.648438 28.515625 214.921875 29.132812 C 214.179688 29.753906 213.140625 30.0625 211.792969 30.0625 C 210.898438 30.050781 210.089844 29.914062 209.363281 29.636719 Z M 209.363281 29.636719 "/>
<path style=" stroke:none;fill-rule:nonzero;fill:rgb(11.372549%,11.372549%,10.588235%);fill-opacity:1;" d="M 219.015625 29.636719 C 218.296875 29.363281 217.71875 29.019531 217.308594 28.585938 C 217.136719 28.414062 217.125 28.242188 217.273438 28.058594 L 217.988281 26.902344 C 218.113281 26.695312 218.300781 26.664062 218.539062 26.832031 C 218.871094 27.125 219.3125 27.363281 219.84375 27.550781 C 220.375 27.734375 220.902344 27.824219 221.421875 27.824219 C 222.488281 27.824219 223.101562 27.433594 223.101562 26.746094 C 223.101562 26.277344 222.640625 25.96875 222.230469 25.867188 C 222.03125 25.816406 221.6875 25.742188 221.203125 25.65625 C 219.964844 25.4375 219.011719 25.089844 218.355469 24.625 C 217.703125 24.15625 217.363281 23.46875 217.363281 22.558594 C 217.363281 21.578125 217.738281 20.808594 218.472656 20.257812 C 219.207031 19.703125 220.199219 19.425781 221.464844 19.425781 C 222.847656 19.425781 224.054688 19.800781 225.097656 20.542969 C 225.304688 20.667969 225.335938 20.851562 225.175781 21.074219 L 224.453125 22.191406 C 224.332031 22.375 224.148438 22.414062 223.925781 22.308594 C 223.230469 21.839844 222.457031 21.601562 221.601562 21.609375 C 220.492188 21.609375 219.941406 21.914062 219.941406 22.523438 C 219.941406 22.941406 220.390625 23.222656 220.832031 23.335938 C 221.050781 23.390625 221.355469 23.457031 221.765625 23.535156 C 221.851562 23.542969 221.925781 23.566406 221.976562 23.585938 C 223.210938 23.84375 224.136719 24.199219 224.753906 24.648438 C 225.375 25.097656 225.679688 25.785156 225.679688 26.695312 C 225.679688 27.695312 225.304688 28.515625 224.578125 29.132812 C 223.835938 29.753906 222.792969 30.0625 221.449219 30.0625 C 220.554688 30.050781 219.738281 29.914062 219.015625 29.636719 Z M 219.015625 29.636719 "/>
</g>
</svg>
